# xmcd
#
# Track frame offsets:
#	150
#	19513
#	40536
#	58116
#	78798
#	95414
#	116354
#	131448
#	149959
#	167069
#	185921
#	201591
#	222165
#	245813
#	266550
#	283290
#
# Disc length: 4117 seconds
#
# Revision: 0
# Processed by: cddbd v1.5.2PL0 Copyright (c) Steve Scherf et al.
# Submitted via: EasyCDDAExtractor 10.0.3.1
#
DISCID=f6101310
DTITLE=Laura Pausini - Io Canto
DYEAR=2006
DGENRE=Pop
TTITLE0=Io Canto
TTITLE1=Due
TTITLE2=Scrivimi
TTITLE3=Il Mio Canto Libero
TTITLE4=Destinazione Paradiso
TTITLE5=Stella Gemella
TTITLE6=Come Il Sole All'Improvviso
TTITLE7=Cinque Giorni
TTITLE8=La Mia Banda Suona Il Rock
TTITLE9=Spaccacuore
TTITLE10=Anima Fragile
TTITLE11=Non Me Lo So Spiegare
TTITLE12=Nei Giardini Che Nessuno Sa
TTITLE13=In Una Stanza Quasi Rosa
TTITLE14=Quando
TTITLE15=Strada Facendo
EXTD=
EXTT0=
EXTT1=
EXTT2=
EXTT3=
EXTT4=
EXTT5=
EXTT6=
EXTT7=
EXTT8=
EXTT9=
EXTT10=
EXTT11=
EXTT12=
EXTT13=
EXTT14=
EXTT15=
PLAYORDER=
